<?xml version="1.0" ?>
<svg
	xmlns="http://www.w3.org/2000/svg"
	viewBox="0 0 650.25763 166.24654">
	<g
		transform="translate(176.36764,393.03224)">
	<path
		fill="#b5090f"
		d="m -14.530841,-247.86418 c -143.404169,0 -143.404169,0 -143.404169,0 -10.14236,0 -18.43263,-8.20208 -18.43263,-18.43264 0,-108.30278 0,-108.30278 0,-108.30278 0,-10.23055 8.29027,-18.43264 18.43263,-18.43264 143.404169,0 143.404169,0 143.404169,0 10.1423631,0 18.4326401,8.20209 18.4326401,18.43264 0,108.30278 0,108.30278 0,108.30278 0,10.23056 -8.290277,18.43264 -18.4326401,18.43264 z" />
	<path
		fill="#b5090f"
		d="m -149.82112,-248 -10.58333,20.72569 30.51528,-21 z" />
	<path
		fill="#fff"
		d="m -163.93223,-261.09335 c 0.88195,-27.95764 1.32292,-64.64653 1.41111,-109.89027 44.45,-16.66875 69.761809,-12.61181 75.935419,12.08263 1.41111,9.525 -5.37986,20.99028 -16.227779,30.2507 10.495139,2.11666 20.108335,6.87916 24.606252,18.60903 6.526387,28.575 -22.048612,44.89097 -85.725002,48.94791 z m 31.92639,-90.3993 c 0,8.64305 0,15.96319 0,22.1368 7.49653,-2.82222 11.81806,-7.8493 12.87639,-14.90486 1.23472,-8.02569 -3.08681,-10.40694 -12.87639,-7.23194 z m -0.17639,43.83264 c 0,6.70277 -0.0882,12.34722 -0.17639,16.93333 15.52223,-1.94028 22.48959,-7.23195 20.81389,-15.875 -0.44097,-4.32153 -7.32014,-4.7625 -20.6375,-1.05833 z" />
	<path
		fill="#fff"
		d="m -85.174591,-260.56418 c 2.998613,-24.07708 -2.20486,-62.97083 0,-106.53889 49.036113,-26.01736 75.5826401,-14.81667 83.2555571,20.81389 4.938889,42.95069 -16.4041671,70.55555 -83.2555571,85.725 z m 26.19375,-34.48403 c 17.286113,-6.17361 25.57639,-17.81528 24.870834,-35.01319 -0.440971,-8.81945 -7.849304,-10.23056 -22.313194,-4.32153 -0.705556,17.90347 -1.5875,30.95625 -2.55764,39.33472 z" />
	<path
		fill="#fff"
		d="m 70.312217,-270.44196 c -4.23334,0 -7.9375,-0.61736 -11.02431,-1.67569 -3.0868,-1.05834 -5.997218,-2.55764 -8.643052,-4.58611 -1.411112,4.85069 -1.411112,4.85069 -1.411112,4.85069 -26.193751,0 -26.193751,0 -26.193751,0 0,-95.1618 0,-95.1618 0,-95.1618 30.33889,0 30.33889,0 30.33889,0 0,30.0743 0,30.0743 0,30.0743 1.940275,-1.05833 4.409725,-1.85208 7.320135,-2.38125 2.91042,-0.61736 5.73264,-0.88194 8.46667,-0.88194 10.14236,0 18.07986,2.64583 23.81251,7.9375 5.73262,5.29166 8.643043,14.02291 8.643043,26.37013 0,11.99445 -2.822213,20.81389 -8.554863,26.63473 -5.64444,5.90903 -13.31736,8.81944 -22.75416,8.81944 z m -8.81945,-21.78403 c 3.08681,0 5.29167,-0.97014 6.87917,-2.91041 1.5875,-2.02848 2.29306,-5.46806 2.29306,-10.31875 0,-4.93889 -0.70556,-8.29028 -2.29306,-10.14236 -1.5875,-1.76389 -3.79236,-2.73403 -6.87917,-2.73403 -3.26319,0 -5.99722,0.97014 -8.113885,2.82222 0,20.19653 0,20.19653 0,20.19653 1.058334,0.97014 2.293055,1.67569 3.615975,2.29305 1.32291,0.52917 2.82222,0.79375 4.49791,0.79375 z" />
	<path
		fill="#fff"
		d="m 130.81361,-270.44196 c -4.23333,0 -8.11389,-0.79375 -11.72987,-2.29305 -3.52777,-1.49931 -6.43819,-3.88056 -8.55486,-7.14375 -2.20485,-3.2632 -3.26318,-7.40834 -3.26318,-12.43542 0,-7.23195 2.38125,-12.87639 7.05554,-16.75695 4.67431,-3.88055 11.90625,-5.82083 21.60764,-5.82083 16.22777,0 16.22777,0 16.22777,0 0,-1.05833 0,-1.05833 0,-1.05833 0,-1.85209 -1.05833,-3.2632 -3.175,-4.23334 -2.11666,-1.05833 -5.55625,-1.4993 -10.23054,-1.4993 -3.61598,0 -7.40833,0.26458 -11.55348,0.88194 -4.05693,0.61736 -7.9375,1.49931 -11.64166,2.64584 0,-17.10973 0,-17.10973 0,-17.10973 3.61598,-1.4993 8.02568,-2.64583 13.40556,-3.61597 5.37985,-0.88194 10.67152,-1.32291 15.78679,-1.32291 10.93613,0 19.66738,2.29305 26.28196,6.70277 6.61458,4.49792 9.87777,11.55348 9.87777,21.07848 0,40.56944 0,40.56944 0,40.56944 -26.54652,0 -26.54652,0 -26.54652,0 -1.23473,-5.11528 -1.23473,-5.11528 -1.23473,-5.11528 -2.38125,1.94028 -5.37985,3.52778 -8.99583,4.7625 -3.61598,1.14653 -8.02569,1.76389 -13.31736,1.76389 z m 11.02429,-17.10972 c 2.38125,0 4.32155,-0.35278 5.99723,-1.23472 1.67569,-0.79375 3.08682,-1.76389 4.32152,-2.99861 0,-7.23195 0,-7.23195 0,-7.23195 -9.61318,0 -9.61318,0 -9.61318,0 -5.02709,0 -7.49652,1.94028 -7.49652,5.82083 0,3.79237 2.29304,5.64445 6.79095,5.64445 z" />
	<path
		fill="#fff"
		d="m 219.18445,-270.44196 c -6.08542,0 -11.72988,-0.44097 -17.10973,-1.41111 -5.37986,-0.88194 -9.525,-1.94028 -12.43542,-3.175 0,-20.28472 0,-20.28472 0,-20.28472 2.29306,1.14653 4.85069,2.11666 7.67292,2.91041 2.91041,0.79375 5.82083,1.41112 8.73125,1.76389 2.91041,0.35278 5.37985,0.52917 7.49652,0.52917 2.73404,0 4.85071,-0.0882 6.43821,-0.17639 1.5875,-0.17639 2.38125,-0.79375 2.38125,-1.94028 0,-0.88194 -0.70557,-1.67569 -2.11667,-2.20486 -1.49931,-0.61736 -3.43958,-1.14653 -5.73265,-1.76389 -2.38125,-0.61736 -4.93889,-1.41111 -7.7611,-2.38125 -6.17363,-2.20486 -10.58333,-4.7625 -13.49375,-7.67291 -2.91042,-2.82223 -4.32154,-7.05556 -4.32154,-12.52361 0,-6.87917 2.82223,-12.25903 8.37848,-15.875 5.64443,-3.70417 14.2875,-5.55625 26.10556,-5.55625 2.91042,0 5.99721,0.17638 9.26042,0.52916 3.35137,0.35278 6.43818,0.70556 9.43679,1.14653 2.91041,0.52917 5.29166,1.05833 7.05556,1.76389 0,20.02014 0,20.02014 0,20.02014 -2.91042,-1.32292 -5.99723,-2.29306 -9.43681,-2.91042 -3.35138,-0.61736 -6.43819,-0.88194 -9.17221,-0.88194 -2.46946,0 -4.85071,0.0882 -7.14375,0.26458 -2.38125,0.17639 -3.52779,0.79375 -3.52779,1.94028 0,1.23472 1.32291,2.11666 4.14514,2.73403 2.73402,0.52916 6.17361,1.4993 10.23057,2.82222 4.93887,1.41111 8.81943,2.99861 11.64166,4.7625 2.73402,1.76389 4.67429,3.96875 5.82084,6.52639 1.14652,2.46944 1.67568,5.64444 1.67568,9.26041 0,6.79098 -2.82223,12.08264 -8.64306,15.9632 -5.82083,3.88055 -14.2875,5.82083 -25.57637,5.82083 z" />
	<path
		fill="#fff"
		d="m 297.5893,-270.44196 c -7.7611,0 -14.81667,-1.32291 -20.90208,-3.88055 -6.17361,-2.64584 -11.02432,-6.52639 -14.4639,-11.64167 -3.52777,-5.20347 -5.29167,-11.55347 -5.29167,-19.05 0,-10.67153 3.08682,-19.1382 9.26042,-25.57639 6.17363,-6.35 15.43404,-9.61319 27.78125,-9.61319 11.20071,0 20.02015,2.82222 26.45833,8.37847 6.5264,5.64444 9.78959,13.49375 9.78959,23.54791 0,11.55348 0,11.55348 0,11.55348 -45.42013,0 -45.42013,0 -45.42013,0 2.38125,5.20347 9.26042,7.76111 20.54929,7.76111 4.14515,0 8.1139,-0.35278 11.99446,-1.05834 3.88054,-0.70555 6.96736,-1.4993 9.34861,-2.46944 0,17.19792 0,17.19792 0,17.19792 -6.70277,3.26319 -16.40417,4.85069 -29.10417,4.85069 z m -12.78819,-42.06875 c 19.40277,0 19.40277,0 19.40277,0 0,-1.85208 0,-1.85208 0,-1.85208 0,-1.94028 -0.61735,-3.70417 -2.02848,-5.11528 -1.32291,-1.41111 -3.79235,-2.11667 -7.23193,-2.11667 -3.79236,0 -6.43819,0.88195 -7.9375,2.46945 -1.49932,1.5875 -2.20486,3.79236 -2.20486,6.61458 z" />
	<path
		fill="#b5090f"
		d="m 360.56013,-295.1364 c 1.5875,1.5875 2.38125,4.85069 2.38125,9.87777 0,0.52917 0,0.52917 0,0.52917 0,2.29306 -0.0882,3.96875 -0.17639,5.02708 -0.17638,1.05834 -0.70554,2.38125 -1.49929,3.88056 -1.41113,2.73403 -4.9389,4.05695 -10.67155,4.05695 -5.73262,0 -9.43679,-0.88195 -11.28887,-2.64584 -1.85208,-1.76389 -2.73404,-5.20347 -2.73404,-10.14236 0,-0.61736 0,-0.61736 0,-0.61736 0,-2.11667 0.0882,-3.79236 0.17639,-4.93889 0.1764,-1.14653 0.61736,-2.38125 1.32292,-3.79236 1.4111,-2.82222 5.02708,-4.23333 10.67152,-4.23333 5.73265,0 9.61321,0.97013 11.81806,2.99861 z" />
	<path
		fill="#fff"
		d="m 376.52332,-271.85307 c 0,-47.27222 0,-47.27222 0,-47.27222 -8.64304,0 -8.64304,0 -8.64304,0 0,-19.66736 0,-19.66736 0,-19.66736 8.64304,0 8.64304,0 8.64304,0 0,-4.32153 0,-4.32153 0,-4.32153 0,-7.58472 2.11667,-13.75833 6.43821,-18.69722 4.32152,-4.93889 10.84792,-7.40834 19.49096,-7.40834 3.70416,0 6.96737,0.26459 9.78958,0.79375 2.91042,0.61737 5.55625,1.41112 8.1139,2.38125 0,17.28612 0,17.28612 0,17.28612 -1.41111,-0.52917 -2.82223,-0.88195 -4.14515,-1.14653 -1.32292,-0.26459 -2.82221,-0.44097 -4.32152,-0.44097 -3.3514,0 -5.73265,0.61736 -6.96735,1.85208 -1.23473,1.23472 -1.9403,3.175 -1.9403,5.90903 0,3.79236 0,3.79236 0,3.79236 15.875,0 15.875,0 15.875,0 -1.14652,19.66736 -1.14652,19.66736 -1.14652,19.66736 -14.72848,0 -14.72848,0 -14.72848,0 0,47.27222 0,47.27222 0,47.27222 z" />
	<path
		fill="#fff"
		d="m 424.32472,-271.85307 c 0,-66.93958 0,-66.93958 0,-66.93958 25.57639,0 25.57639,0 25.57639,0 0.70554,5.37986 0.70554,5.37986 0.70554,5.37986 2.73405,-1.5875 6.17363,-3.08681 10.40696,-4.40972 4.23334,-1.23473 8.55486,-2.11667 12.87638,-2.38125 0,19.75555 0,19.75555 0,19.75555 -2.46944,0.17639 -5.11527,0.52917 -8.02569,0.97014 -2.82223,0.52917 -5.64444,1.05833 -8.29027,1.76389 -2.73404,0.70555 -4.9389,1.4993 -6.70279,2.38125 0,43.47986 0,43.47986 0,43.47986 z" />
	</g>
</svg>